<svg width="20" height="20" viewBox="0 0 20 20" fill="none" xmlns="http://www.w3.org/2000/svg">
<g id="Sortera ikon">
<path id="Vector" d="M5.24402 3.5775C5.40029 3.42127 5.61221 3.33351 5.83318 3.33351C6.05415 3.33351 6.26608 3.42127 6.42235 3.5775L9.75568 6.91083C9.90748 7.068 9.99148 7.2785 9.98958 7.497C9.98768 7.71549 9.90004 7.9245 9.74553 8.07901C9.59103 8.23352 9.38202 8.32116 9.16352 8.32306C8.94502 8.32495 8.73452 8.24096 8.57735 8.08916L6.66652 6.17833V15.8333C6.66652 16.0543 6.57872 16.2663 6.42244 16.4226C6.26616 16.5789 6.0542 16.6667 5.83318 16.6667C5.61217 16.6667 5.40021 16.5789 5.24393 16.4226C5.08765 16.2663 4.99985 16.0543 4.99985 15.8333V6.17833L3.08902 8.08916C2.93185 8.24096 2.72135 8.32495 2.50285 8.32306C2.28435 8.32116 2.07534 8.23352 1.92084 8.07901C1.76633 7.9245 1.67869 7.71549 1.67679 7.497C1.67489 7.2785 1.75889 7.068 1.91068 6.91083L5.24402 3.5775ZM13.3332 13.8217V4.16666C13.3332 3.94565 13.421 3.73369 13.5773 3.57741C13.7335 3.42113 13.9455 3.33333 14.1665 3.33333C14.3875 3.33333 14.5995 3.42113 14.7558 3.57741C14.9121 3.73369 14.9999 3.94565 14.9999 4.16666V13.8217L16.9107 11.9108C17.0679 11.759 17.2784 11.675 17.4969 11.6769C17.7153 11.6788 17.9244 11.7665 18.0789 11.921C18.2334 12.0755 18.321 12.2845 18.3229 12.503C18.3248 12.7215 18.2408 12.932 18.089 13.0892L14.7557 16.4225C14.5994 16.5787 14.3875 16.6665 14.1665 16.6665C13.9455 16.6665 13.7336 16.5787 13.5774 16.4225L10.244 13.0892C10.0922 12.932 10.0082 12.7215 10.0101 12.503C10.012 12.2845 10.0997 12.0755 10.2542 11.921C10.4087 11.7665 10.6177 11.6788 10.8362 11.6769C11.0547 11.675 11.2652 11.759 11.4224 11.9108L13.3332 13.8217Z" fill="black"/>
</g>
</svg>
